<svg xmlns="http://www.w3.org/2000/svg" viewBox="0 0 1536 1024" font-family="Helvetica, Arial, sans-serif">
  <!-- Stage 4 · DETAIL CALLOUTS · seeded from Penitent-Knight_helm-material-detail-v1 panel grid -->
  <rect width="1536" height="1024" fill="#141414"/>

  <!-- hero panels -->
  <rect x="16" y="16" width="480" height="736" fill="none" stroke="#6a6a6a" stroke-width="2"/>
  <text x="32" y="52" font-size="26" font-weight="bold" fill="#9a9a9a">HERO — ¾ view</text>
  <text x="32" y="80" font-size="18" fill="#7a7a7a">the item as worn / held</text>

  <rect x="512" y="16" width="496" height="736" fill="none" stroke="#6a6a6a" stroke-width="2"/>
  <text x="528" y="52" font-size="26" font-weight="bold" fill="#9a9a9a">HERO — front</text>
  <text x="528" y="80" font-size="18" fill="#7a7a7a">orthographic-ish, silhouette clear</text>

  <!-- close-up column -->
  <rect x="1024" y="16" width="496" height="236" fill="none" stroke="#6a6a6a" stroke-width="2"/>
  <text x="1040" y="48" font-size="20" font-weight="bold" fill="#9a9a9a">CLOSE-UP — signature detail</text>
  <rect x="1024" y="268" width="496" height="236" fill="none" stroke="#6a6a6a" stroke-width="2"/>
  <text x="1040" y="300" font-size="20" font-weight="bold" fill="#9a9a9a">CLOSE-UP — surface / wear</text>
  <rect x="1024" y="516" width="496" height="236" fill="none" stroke="#6a6a6a" stroke-width="2"/>
  <text x="1040" y="548" font-size="20" font-weight="bold" fill="#9a9a9a">CLOSE-UP — mechanism / seam</text>

  <!-- material swatch row -->
  <rect x="16" y="768" width="288" height="240" fill="none" stroke="#6a6a6a" stroke-width="2"/>
  <text x="32" y="800" font-size="18" font-weight="bold" fill="#9a9a9a">SWATCH — primary</text>
  <rect x="320" y="768" width="288" height="240" fill="none" stroke="#6a6a6a" stroke-width="2"/>
  <text x="336" y="800" font-size="18" font-weight="bold" fill="#9a9a9a">SWATCH — secondary</text>
  <rect x="624" y="768" width="288" height="240" fill="none" stroke="#6a6a6a" stroke-width="2"/>
  <text x="640" y="800" font-size="18" font-weight="bold" fill="#9a9a9a">SWATCH — trim / accent</text>
  <rect x="928" y="768" width="288" height="240" fill="none" stroke="#6a6a6a" stroke-width="2"/>
  <text x="944" y="800" font-size="18" font-weight="bold" fill="#9a9a9a">SWATCH — cloth / soft</text>
  <rect x="1232" y="768" width="288" height="240" fill="none" stroke="#6a6a6a" stroke-width="2"/>
  <text x="1248" y="800" font-size="18" font-weight="bold" fill="#9a9a9a">SWATCH — emissive / tell</text>

  <!-- rules -->
  <text x="1032" y="744" font-size="16" fill="#7a7a7a">3:2 · black gutters · &lt;Name&gt;_&lt;item&gt;-detail-v1 · one sheet per signature item</text>
</svg>
